<svg xmlns="http://www.w3.org/2000/svg" width="1440" height="2560" viewBox="0 0 1440 2560">
  <defs>
    <linearGradient id="bg" x1="0" y1="0" x2="1" y2="1">
      <stop offset="0" stop-color="#0f3638"/>
      <stop offset=".55" stop-color="#15504b"/>
      <stop offset="1" stop-color="#10252b"/>
    </linearGradient>
    <radialGradient id="light" cx="50%" cy="22%" r="48%">
      <stop offset="0" stop-color="#f6c866" stop-opacity=".52"/>
      <stop offset=".55" stop-color="#f6c866" stop-opacity=".12"/>
      <stop offset="1" stop-color="#f6c866" stop-opacity="0"/>
    </radialGradient>
    <pattern id="grid" width="96" height="96" patternUnits="userSpaceOnUse">
      <path d="M0 48H96M48 0V96" stroke="#fff2bd" stroke-width="2" stroke-opacity=".055"/>
      <circle cx="48" cy="48" r="3" fill="#fff2bd" opacity=".12"/>
    </pattern>
    <filter id="shadow" x="-20%" y="-20%" width="140%" height="140%">
      <feDropShadow dx="0" dy="18" stdDeviation="18" flood-color="#041316" flood-opacity=".42"/>
    </filter>
  </defs>
  <rect width="1440" height="2560" fill="url(#bg)"/>
  <rect width="1440" height="2560" fill="url(#grid)"/>
  <rect width="1440" height="1200" fill="url(#light)"/>
  <g opacity=".17" fill="none" stroke="#fff0b4" stroke-width="3">
    <path d="M180 460h1080M180 580h1080M180 700h1080"/>
    <path d="M360 320v560M540 320v560M720 320v560M900 320v560M1080 320v560"/>
  </g>
  <g filter="url(#shadow)" opacity=".96">
    <g transform="translate(324 760) rotate(-7)">
      <rect width="210" height="270" rx="32" fill="#fff8df" stroke="#d3b36f" stroke-width="8"/>
      <rect x="26" y="26" width="158" height="218" rx="18" fill="none" stroke="#d65a4e" stroke-width="5" opacity=".35"/>
      <text x="105" y="168" font-family="Arial, sans-serif" font-size="118" font-weight="900" text-anchor="middle" fill="#d65a4e">3</text>
    </g>
    <g transform="translate(612 698)">
      <rect width="216" height="282" rx="34" fill="#fff8df" stroke="#d3b36f" stroke-width="8"/>
      <rect x="27" y="27" width="162" height="228" rx="18" fill="none" stroke="#2c8c70" stroke-width="5" opacity=".38"/>
      <text x="108" y="176" font-family="Arial, sans-serif" font-size="124" font-weight="900" text-anchor="middle" fill="#2c8c70">8</text>
    </g>
    <g transform="translate(906 760) rotate(7)">
      <rect width="210" height="270" rx="32" fill="#fff8df" stroke="#d3b36f" stroke-width="8"/>
      <rect x="26" y="26" width="158" height="218" rx="18" fill="none" stroke="#2878a8" stroke-width="5" opacity=".35"/>
      <text x="105" y="168" font-family="Arial, sans-serif" font-size="118" font-weight="900" text-anchor="middle" fill="#2878a8">9</text>
    </g>
  </g>
  <path d="M0 2020c260-90 482-96 702-20 238 82 482 64 738-44v604H0z" fill="#061b20" opacity=".32"/>
</svg>
