<svg xmlns="http://www.w3.org/2000/svg" width="1440" height="2560" viewBox="0 0 1440 2560">
  <defs>
    <linearGradient id="sky" x1="0" y1="0" x2="1" y2="1">
      <stop offset="0" stop-color="#0d3f4a"/>
      <stop offset="0.42" stop-color="#1e6b65"/>
      <stop offset="1" stop-color="#f2b75b"/>
    </linearGradient>
    <radialGradient id="glow" cx="50%" cy="18%" r="46%">
      <stop offset="0" stop-color="#fff0b7" stop-opacity=".9"/>
      <stop offset=".38" stop-color="#f4c066" stop-opacity=".34"/>
      <stop offset="1" stop-color="#f4c066" stop-opacity="0"/>
    </radialGradient>
    <pattern id="lattice" width="120" height="120" patternUnits="userSpaceOnUse">
      <path d="M0 60H120M60 0V120M0 0l120 120M120 0L0 120" fill="none" stroke="#fff3c7" stroke-opacity=".08" stroke-width="3"/>
    </pattern>
    <filter id="soft">
      <feGaussianBlur stdDeviation="14"/>
    </filter>
  </defs>
  <rect width="1440" height="2560" fill="url(#sky)"/>
  <rect width="1440" height="2560" fill="url(#lattice)" opacity=".85"/>
  <rect width="1440" height="1160" fill="url(#glow)"/>
  <circle cx="1125" cy="235" r="126" fill="#ffe1a2" opacity=".88"/>
  <circle cx="1125" cy="235" r="178" fill="#ffe1a2" opacity=".15"/>
  <g opacity=".22" filter="url(#soft)">
    <ellipse cx="215" cy="430" rx="220" ry="84" fill="#ffffff"/>
    <ellipse cx="740" cy="310" rx="270" ry="96" fill="#ffffff"/>
    <ellipse cx="1210" cy="540" rx="250" ry="86" fill="#ffffff"/>
  </g>
  <g transform="translate(112 980) rotate(-11)">
    <rect x="0" y="0" width="210" height="270" rx="28" fill="#fdf8df" stroke="#d8bd74" stroke-width="8"/>
    <rect x="24" y="24" width="162" height="222" rx="18" fill="none" stroke="#b94d42" stroke-opacity=".35" stroke-width="5"/>
    <text x="105" y="172" text-anchor="middle" font-family="Georgia,serif" font-size="108" font-weight="700" fill="#b94742">萬</text>
  </g>
  <g transform="translate(1076 1040) rotate(13)">
    <rect x="0" y="0" width="210" height="270" rx="28" fill="#fdf8df" stroke="#d8bd74" stroke-width="8"/>
    <rect x="24" y="24" width="162" height="222" rx="18" fill="none" stroke="#21765b" stroke-opacity=".35" stroke-width="5"/>
    <text x="105" y="174" text-anchor="middle" font-family="Arial,sans-serif" font-size="122" font-weight="900" fill="#21765b">8</text>
  </g>
  <g transform="translate(184 1790) rotate(9)" opacity=".92">
    <rect width="178" height="230" rx="24" fill="#fffdf0" stroke="#d8bd74" stroke-width="7"/>
    <text x="89" y="148" text-anchor="middle" font-family="Arial,sans-serif" font-size="96" font-weight="900" fill="#286ca7">×</text>
  </g>
  <g transform="translate(1050 1760) rotate(-8)" opacity=".92">
    <rect width="178" height="230" rx="24" fill="#fffdf0" stroke="#d8bd74" stroke-width="7"/>
    <text x="89" y="148" text-anchor="middle" font-family="Arial,sans-serif" font-size="96" font-weight="900" fill="#c78b24">+</text>
  </g>
  <path d="M0 2045c260-115 426-124 650-30 268 112 515 42 790-96v641H0z" fill="#14353a" opacity=".42"/>
  <path d="M0 2180c290-92 520-118 792-26 230 78 428 34 648-68v474H0z" fill="#102e35" opacity=".72"/>
  <g fill="none" stroke="#ffd77d" stroke-width="4" opacity=".58">
    <path d="M214 1988c84 68 158 72 246 0"/>
    <path d="M910 1935c120 92 232 94 342 0"/>
    <path d="M512 2210c80 52 162 52 244 0"/>
  </g>
</svg>
